<svg xmlns="http://www.w3.org/2000/svg" aria-hidden="true" style="position:absolute;width:0;height:0;overflow:hidden">
  <defs>
     <symbol id="mail" viewBox="0 0 43 32">
      <path d="M38.667 0H4C1.794 0 0 1.794 0 4v24c0 2.206 1.794 4 4 4h34.667c2.206 0 4-1.794 4-4V4c0-2.206-1.794-4-4-4zm0 2.667c.181 0 .353.038.511.103L21.334 18.236 3.49 2.77a1.32 1.32 0 0 1 .511-.103h34.667zm0 26.666H4A1.334 1.334 0 0 1 2.667 28V5.587L20.46 21.008a1.335 1.335 0 0 0 1.748 0L40.001 5.587V28c0 .736-.598 1.333-1.333 1.333z" />
    </symbol>
    <symbol id="facebook" viewBox="0 0 32 32">
      <path d="M21.329 5.313h2.921V.225C23.746.156 22.013 0 19.994 0c-4.212 0-7.097 2.649-7.097 7.519V12H8.249v5.688h4.648V32h5.699V17.689h4.46l.708-5.688h-5.169V8.082c.001-1.644.444-2.769 2.735-2.769z"/>
    </symbol>
    <symbol id="instagram" viewBox="0 0 32 32">
      <path d="M31.969 9.408c-.075-1.7-.35-2.869-.744-3.882a7.806 7.806 0 0 0-1.851-2.838A7.867 7.867 0 0 0 26.542.844C25.523.45 24.36.175 22.66.1 20.947.019 20.403 0 16.059 0s-4.888.019-6.595.094c-1.7.075-2.869.35-3.882.744a7.803 7.803 0 0 0-2.838 1.85A7.867 7.867 0 0 0 .9 5.52C.506 6.539.231 7.702.156 9.402c-.081 1.713-.1 2.257-.1 6.601s.019 4.888.094 6.595c.075 1.7.35 2.869.744 3.882a7.895 7.895 0 0 0 1.85 2.838 7.867 7.867 0 0 0 2.832 1.844c1.019.394 2.182.669 3.882.744 1.706.075 2.25.094 6.595.094s4.888-.019 6.595-.094c1.7-.075 2.869-.35 3.882-.744a8.184 8.184 0 0 0 4.682-4.682c.394-1.019.669-2.182.744-3.882.075-1.707.094-2.251.094-6.595s-.006-4.888-.081-6.595zm-2.882 13.065c-.069 1.563-.331 2.407-.55 2.969a5.31 5.31 0 0 1-3.038 3.038c-.563.219-1.413.481-2.969.55-1.688.075-2.194.094-6.464.094s-4.782-.019-6.464-.094c-1.563-.069-2.407-.331-2.969-.55a4.926 4.926 0 0 1-1.838-1.194 4.974 4.974 0 0 1-1.194-1.838c-.219-.563-.481-1.413-.55-2.969-.075-1.688-.094-2.194-.094-6.464s.019-4.782.094-6.464c.069-1.563.331-2.407.55-2.969a4.868 4.868 0 0 1 1.2-1.838A4.974 4.974 0 0 1 6.639 3.55c.563-.219 1.413-.481 2.969-.55 1.688-.075 2.194-.094 6.464-.094 4.276 0 4.782.019 6.464.094 1.563.069 2.407.331 2.969.55a4.914 4.914 0 0 1 1.838 1.194 4.974 4.974 0 0 1 1.194 1.838c.219.563.481 1.413.55 2.969.075 1.688.094 2.194.094 6.464s-.019 4.77-.094 6.458z"/>
      <path d="M16.059 7.783c-4.538 0-8.22 3.682-8.22 8.22s3.682 8.22 8.22 8.22c4.539 0 8.22-3.682 8.22-8.22s-3.682-8.22-8.22-8.22zm0 13.552a5.333 5.333 0 0 1 0-10.664 5.333 5.333 0 0 1 0 10.664zM26.524 7.458a1.919 1.919 0 1 1-3.838 0 1.919 1.919 0 0 1 3.838 0z"/>
    </symbol>
    <symbol id="linkedin" viewBox="0 0 32 32">
      <path d="M31.992 32v-.001H32V20.263c0-5.741-1.236-10.164-7.948-10.164-3.227 0-5.392 1.771-6.276 3.449h-.093v-2.913h-6.364v21.364h6.627V21.42c0-2.785.528-5.479 3.977-5.479 3.399 0 3.449 3.179 3.449 5.657v10.401h6.62zM.528 10.636h6.635V32H.528V10.636zM3.843 0C1.722 0 0 1.721 0 3.843s1.721 3.879 3.843 3.879c2.121 0 3.843-1.757 3.843-3.879A3.846 3.846 0 0 0 3.843 0z"/>
    </symbol>
    <symbol id="phone" viewBox="0 0 20 32">
      <path d="M17 0H3C1.346 0 0 1.346 0 3v26c0 1.654 1.346 3 3 3h14c1.654 0 3-1.346 3-3V3c0-1.654-1.346-3-3-3zM3 2h14a1 1 0 0 1 1 1v21H2V3a1 1 0 0 1 1-1zm14 28H3a1 1 0 0 1-1-1v-3h16v3a1 1 0 0 1-1 1z"/>
      <path d="M4.707 27.478c.391.365.391.956 0 1.321s-1.024.365-1.414 0c-.391-.365-.391-.956 0-1.321s1.024-.365 1.414 0z"/>
    </symbol>
    <symbol id="twitter" viewBox="0 0 32 32">
      <path d="M32 6.078c-1.19.522-2.458.868-3.78 1.036a6.523 6.523 0 0 0 2.886-3.626 13.11 13.11 0 0 1-4.16 1.588A6.574 6.574 0 0 0 22.154 3c-3.632 0-6.556 2.948-6.556 6.562 0 .52.044 1.02.152 1.496-5.454-.266-10.28-2.88-13.522-6.862a6.605 6.605 0 0 0-.898 3.316 6.57 6.57 0 0 0 2.914 5.452 6.479 6.479 0 0 1-2.964-.808v.072c0 3.188 2.274 5.836 5.256 6.446a6.548 6.548 0 0 1-1.72.216 5.8 5.8 0 0 1-1.242-.112c.85 2.598 3.262 4.508 6.13 4.57a13.182 13.182 0 0 1-8.134 2.798c-.538 0-1.054-.024-1.57-.09A18.469 18.469 0 0 0 10.064 29c12.072 0 18.672-10 18.672-18.668 0-.29-.01-.57-.024-.848A13.087 13.087 0 0 0 32 6.078z"/>
    </symbol>
    <symbol id="close" viewBox="0 0 32 32">
      <path d="m26.667 7.303-1.97-1.97-7.808 7.808-7.808-7.808-1.97 1.97 7.808 7.808-7.808 7.808 1.97 1.97 7.808-7.808 7.808 7.808 1.97-1.97-7.808-7.808 7.808-7.808z"/>
    </symbol>
     <symbol id="icon-send" viewBox="0 0 32 32">
      <path d="M32 0 0 18l10.227 3.788L26 7 14.002 23.186l.01.004-.012-.004V32l5.735-6.691L27 28l5-28z"/>
    </symbol>
    <symbol id="icon-accept" viewBox="0 0 32 32">
      <path stroke="#fff" stroke-width=".492" d="m4.817 15.389-.169-.162-2.544 2.41 8.962 8.55L29.895 8.225l-2.527-2.411L11.066 21.35l-6.249-5.962z"/>
    </symbol>
    <symbol id="icon-Vector" viewBox="0 0 32 32">
      <path d="M28.444 4.333v23.333H3.555V4.333h24.889zm0-3.333H3.555C1.599 1-.001 2.5-.001 4.333v23.333c0 1.833 1.6 3.333 3.556 3.333h24.889c1.956 0 3.556-1.5 3.556-3.333V4.333C32 2.5 30.4 1 28.444 1z"/>
    </symbol>
    <symbol id="icon-email" viewBox="0 0 32 32">
      <path d="M26.667 5.333H5.334A2.663 2.663 0 0 0 2.681 8l-.013 16c0 1.467 1.2 2.667 2.667 2.667h21.333c1.467 0 2.667-1.2 2.667-2.667V8c0-1.467-1.2-2.667-2.667-2.667zM26.133 11l-9.427 5.893a1.346 1.346 0 0 1-1.413 0L5.866 11a1.132 1.132 0 1 1 1.2-1.92l8.933 5.587 8.933-5.587a1.132 1.132 0 1 1 1.2 1.92z"/>
    </symbol>
    <symbol id="icon-phone" viewBox="0 0 32 32">
      <path d="m24.882 19.773-3.268-.373a2.561 2.561 0 0 0-2.11.733L17.137 22.5a19.357 19.357 0 0 1-8.478-8.478l2.38-2.38a2.561 2.561 0 0 0 .733-2.11l-.373-3.242a2.575 2.575 0 0 0-2.56-2.277H6.613c-1.454 0-2.663 1.209-2.573 2.663.682 10.987 9.469 19.761 20.443 20.443 1.454.09 2.663-1.119 2.663-2.573V22.32a2.549 2.549 0 0 0-2.264-2.547z"/>
    </symbol>
    <symbol id="icon-person" viewBox="0 0 32 32">
      <path d="M16 16c2.947 0 5.333-2.387 5.333-5.333S18.946 5.334 16 5.334c-2.947 0-5.333 2.387-5.333 5.333S13.054 16 16 16zm0 2.667c-3.56 0-10.667 1.787-10.667 5.333v1.333c0 .733.6 1.333 1.333 1.333h18.667c.733 0 1.333-.6 1.333-1.333V24c0-3.547-7.107-5.333-10.667-5.333z"/>
    </symbol>
     <symbol id="close-menu" viewBox="0 0 32 32">
      <path d="M23.733 10.304 22.229 8.8l-5.963 5.963L10.303 8.8l-1.504 1.504 5.963 5.963-5.963 5.963 1.504 1.504 5.963-5.963 5.963 5.963 1.504-1.504-5.963-5.963 5.963-5.963z"/>
    </symbol>
    <symbol id="open-menu" viewBox="0 0 32 32">
      <path d="M6.4 11.733V9.6h19.2v2.133H6.4zm0 5.334h19.2v-2.133H6.4v2.133zm0 5.333h19.2v-2.133H6.4V22.4z"/>
    </symbol>
    <symbol id="gbunitedkingdomflag" viewBox="0 0 64 32">
      <path fill="#00247d" d="M0 0v32h64V0z" style="fill:var(--color1, #00247d)"/>
      <path d="m0 0 64 32m0-32L0 32" style="fill:var(--color2, #000)"/>
      <path stroke="#fff" stroke-width=".533" d="M32 0v32M0 16h64" style="fill:var(--color2, #000);stroke:var(--color3, #fff)"/>
      <path d="M32 0v32M0 16h64" style="fill:var(--color2, #000)"/>
    </symbol>

    <symbol id="degermanyflag" viewBox="0 0 53 32">
      <path d="M0 0h53.333v32H0V0z" style="fill:var(--color2, #000)"/>
      <path fill="#d00" d="M0 10.667h53.333V32H0V10.667z" style="fill:var(--color4, #d00)"/>
      <path fill="#ffce00" d="M0 21.333h53.333V32H0V21.333z" style="fill:var(--color5, #ffce00)"/>
    </symbol>
    <symbol id="uaukraineflag" viewBox="0 0 48 32">
      <path fill="#005bbb" d="M0 0h48v32H0V0z" style="fill:var(--color6, #005bbb)"/>
      <path fill="#ffd500" d="M0 16h48v16H0V16z" style="fill:var(--color7, #ffd500)"/>
    </symbol>
    <symbol id="usunitedstatesflag" viewBox="0 0 61 32">
      <path fill="#b22234" style="fill: var(--color1, #b22234)" d="M0 0h60.8v32h-60.8v-32z"></path>
      <path fill="#000" style="fill: var(--color2, #000)" d="M0 3.692h60.8zM60.8 8.615h-60.8zM0 13.538h60.8zM60.8 18.462h-60.8zM0 23.385h60.8zM60.8 28.308h-60.8z"></path>
      <path fill="#fff" style="fill: var(--color3, #fff)" d="M60.8 29.538h-60.8v-2.462h60.8v2.462zM60.8 24.615h-60.8v-2.462h60.8v2.462zM60.8 19.692h-60.8v-2.462h60.8v2.462zM60.8 14.769h-60.8v-2.462h60.8v2.462zM60.8 9.846h-60.8v-2.462h60.8v2.462zM60.8 4.923h-60.8v-2.462h60.8v2.462z"></path>
      <path fill="#3c3b6e" style="fill: var(--color4, #3c3b6e)" d="M0 0h24.32v17.231h-24.32v-17.231z"></path>
      <path fill="#fff" style="fill: var(--color3, #fff)" d="M2.028 0.738l0.581 1.782-1.521-1.103h1.871l-1.511 1.103 0.581-1.782z"></path>
      <path fill="#fff" style="fill: var(--color3, #fff)" d="M2.028 4.185l0.581 1.782-1.521-1.103h1.871l-1.516 1.103 0.586-1.782z"></path>
      <path fill="#fff" style="fill: var(--color3, #fff)" d="M2.028 7.631l0.581 1.782-1.516-1.103h1.871l-1.516 1.103 0.581-1.782z"></path>
      <path fill="#fff" style="fill: var(--color3, #fff)" d="M2.028 11.077l0.581 1.782-1.516-1.103h1.871l-1.516 1.103 0.581-1.782z"></path>
      <path fill="#fff" style="fill: var(--color3, #fff)" d="M2.028 14.523l0.581 1.782-1.516-1.103h1.871l-1.516 1.103 0.581-1.782z"></path>
      <path fill="#fff" style="fill: var(--color3, #fff)" d="M4.052 2.462l0.581 1.782-1.516-1.103h1.871l-1.511 1.103 0.576-1.782z"></path>
      <path fill="#fff" style="fill: var(--color3, #fff)" d="M4.052 5.908l0.581 1.782-1.516-1.103h1.871l-1.516 1.103 0.581-1.782z"></path>
      <path fill="#fff" style="fill: var(--color3, #fff)" d="M4.052 9.354l0.581 1.782-1.516-1.103h1.871l-1.516 1.103 0.581-1.782z"></path>
      <path fill="#fff" style="fill: var(--color3, #fff)" d="M4.052 12.8l0.581 1.782-1.516-1.103h1.871l-1.516 1.103 0.581-1.782z"></path>
      <path fill="#fff" style="fill: var(--color3, #fff)" d="M6.080 0.738l0.581 1.782-1.516-1.103h1.871l-1.516 1.103 0.581-1.782z"></path>
      <path fill="#fff" style="fill: var(--color3, #fff)" d="M6.080 4.185l0.581 1.782-1.516-1.103h1.871l-1.516 1.103 0.581-1.782z"></path>
      <path fill="#fff" style="fill: var(--color3, #fff)" d="M6.080 7.631l0.581 1.782-1.516-1.103h1.871l-1.516 1.103 0.581-1.782z"></path>
      <path fill="#fff" style="fill: var(--color3, #fff)" d="M6.080 11.077l0.581 1.782-1.516-1.103h1.871l-1.516 1.103 0.581-1.782z"></path>
      <path fill="#fff" style="fill: var(--color3, #fff)" d="M6.080 14.523l0.581 1.782-1.516-1.103h1.871l-1.516 1.103 0.581-1.782z"></path>
      <path fill="#fff" style="fill: var(--color3, #fff)" d="M8.108 2.462l0.581 1.782-1.516-1.103h1.871l-1.516 1.103 0.581-1.782z"></path>
      <path fill="#fff" style="fill: var(--color3, #fff)" d="M8.108 5.908l0.581 1.782-1.516-1.103h1.871l-1.516 1.103 0.581-1.782z"></path>
      <path fill="#fff" style="fill: var(--color3, #fff)" d="M8.108 9.354l0.581 1.782-1.516-1.103h1.871l-1.516 1.103 0.581-1.782z"></path>
      <path fill="#fff" style="fill: var(--color3, #fff)" d="M8.108 12.8l0.581 1.782-1.516-1.103h1.871l-1.516 1.103 0.581-1.782z"></path>
      <path fill="#fff" style="fill: var(--color3, #fff)" d="M10.132 0.738l0.581 1.782-1.516-1.103h1.871l-1.516 1.103 0.581-1.782z"></path>
      <path fill="#fff" style="fill: var(--color3, #fff)" d="M10.132 4.185l0.581 1.782-1.516-1.103h1.871l-1.516 1.103 0.581-1.782z"></path>
      <path fill="#fff" style="fill: var(--color3, #fff)" d="M10.132 7.631l0.581 1.782-1.516-1.103h1.871l-1.516 1.103 0.581-1.782z"></path>
      <path fill="#fff" style="fill: var(--color3, #fff)" d="M10.132 11.077l0.581 1.782-1.516-1.103h1.871l-1.516 1.103 0.581-1.782z"></path>
      <path fill="#fff" style="fill: var(--color3, #fff)" d="M10.132 14.523l0.581 1.782-1.516-1.103h1.871l-1.516 1.103 0.581-1.782z"></path>
      <path fill="#fff" style="fill: var(--color3, #fff)" d="M12.16 2.462l0.581 1.782-1.516-1.103h1.871l-1.516 1.103 0.581-1.782z"></path>
      <path fill="#fff" style="fill: var(--color3, #fff)" d="M12.16 5.908l0.581 1.782-1.516-1.103h1.871l-1.516 1.103 0.581-1.782z"></path>
      <path fill="#fff" style="fill: var(--color3, #fff)" d="M12.16 9.354l0.581 1.782-1.516-1.103h1.871l-1.516 1.103 0.581-1.782z"></path>
      <path fill="#fff" style="fill: var(--color3, #fff)" d="M12.16 12.8l0.581 1.782-1.516-1.103h1.871l-1.516 1.103 0.581-1.782z"></path>
      <path fill="#fff" style="fill: var(--color3, #fff)" d="M14.188 0.738l0.581 1.782-1.516-1.103h1.871l-1.516 1.103 0.581-1.782z"></path>
      <path fill="#fff" style="fill: var(--color3, #fff)" d="M14.188 4.185l0.581 1.782-1.516-1.103h1.871l-1.516 1.103 0.581-1.782z"></path>
      <path fill="#fff" style="fill: var(--color3, #fff)" d="M14.188 7.631l0.581 1.782-1.516-1.103h1.871l-1.516 1.103 0.581-1.782z"></path>
      <path fill="#fff" style="fill: var(--color3, #fff)" d="M14.188 11.077l0.581 1.782-1.516-1.103h1.871l-1.516 1.103 0.581-1.782z"></path>
      <path fill="#fff" style="fill: var(--color3, #fff)" d="M14.188 14.523l0.581 1.782-1.516-1.103h1.871l-1.516 1.103 0.581-1.782z"></path>
      <path fill="#fff" style="fill: var(--color3, #fff)" d="M16.212 2.462l0.581 1.782-1.516-1.103h1.871l-1.516 1.103 0.581-1.782z"></path>
      <path fill="#fff" style="fill: var(--color3, #fff)" d="M16.212 5.908l0.581 1.782-1.516-1.103h1.871l-1.516 1.103 0.581-1.782z"></path>
      <path fill="#fff" style="fill: var(--color3, #fff)" d="M16.212 9.354l0.581 1.782-1.516-1.103h1.871l-1.516 1.103 0.581-1.782z"></path>
      <path fill="#fff" style="fill: var(--color3, #fff)" d="M16.212 12.8l0.581 1.782-1.516-1.103h1.871l-1.516 1.103 0.581-1.782z"></path>
      <path fill="#fff" style="fill: var(--color3, #fff)" d="M18.24 0.738l0.581 1.782-1.516-1.103h1.871l-1.516 1.103 0.581-1.782z"></path>
      <path fill="#fff" style="fill: var(--color3, #fff)" d="M18.24 4.185l0.581 1.782-1.516-1.103h1.871l-1.516 1.103 0.581-1.782z"></path>
      <path fill="#fff" style="fill: var(--color3, #fff)" d="M18.24 7.631l0.581 1.782-1.516-1.103h1.871l-1.516 1.103 0.581-1.782z"></path>
      <path fill="#fff" style="fill: var(--color3, #fff)" d="M18.24 11.077l0.581 1.782-1.516-1.103h1.871l-1.516 1.103 0.581-1.782z"></path>
      <path fill="#fff" style="fill: var(--color3, #fff)" d="M18.24 14.523l0.581 1.782-1.516-1.103h1.871l-1.516 1.103 0.581-1.782z"></path>
      <path fill="#fff" style="fill: var(--color3, #fff)" d="M20.268 2.462l0.581 1.782-1.516-1.103h1.871l-1.516 1.103 0.581-1.782z"></path>
      <path fill="#fff" style="fill: var(--color3, #fff)" d="M20.268 5.908l0.581 1.782-1.516-1.103h1.871l-1.516 1.103 0.581-1.782z"></path>
      <path fill="#fff" style="fill: var(--color3, #fff)" d="M20.268 9.354l0.581 1.782-1.516-1.103h1.871l-1.516 1.103 0.581-1.782z"></path>
      <path fill="#fff" style="fill: var(--color3, #fff)" d="M20.268 12.8l0.581 1.782-1.516-1.103h1.871l-1.516 1.103 0.581-1.782z"></path>
      <path fill="#fff" style="fill: var(--color3, #fff)" d="M22.292 0.738l0.581 1.782-1.516-1.103h1.871l-1.516 1.103 0.581-1.782z"></path>
      <path fill="#fff" style="fill: var(--color3, #fff)" d="M22.292 4.185l0.581 1.782-1.516-1.103h1.871l-1.516 1.103 0.581-1.782z"></path>
      <path fill="#fff" style="fill: var(--color3, #fff)" d="M22.292 7.631l0.581 1.782-1.516-1.103h1.871l-1.516 1.103 0.581-1.782z"></path>
      <path fill="#fff" style="fill: var(--color3, #fff)" d="M22.292 11.077l0.581 1.782-1.516-1.103h1.871l-1.516 1.103 0.581-1.782z"></path>
      <path fill="#fff" style="fill: var(--color3, #fff)" d="M22.292 14.523l0.581 1.782-1.516-1.103h1.871l-1.516 1.103 0.581-1.782z"></path>
    </symbol>

    <symbol id="gbunitedkingdomflag" viewBox="0 0 64 32">
      <path fill="#00247d" style="fill: var(--color5, #00247d)" d="M64 3.579l-24.843 12.421 24.843 12.421zM32 12.421l24.843-12.421h-49.685zM0 28.421l24.843-12.421-24.843-12.421zM32 19.579l-24.843 12.421h49.685z"></path>
      <path fill="#000" style="fill: var(--color2, #000)" d="M0 0l64 32zM64 0l-64 32z"></path>
      <path fill="#cf142b" style="fill: var(--color6, #cf142b)" d="M63.045 33.909l-31.045-15.525-31.045 15.525-1.909-3.819 28.187-14.091-28.187-14.091 1.909-3.819 31.045 15.525 31.045-15.525 1.909 3.819-28.187 14.091 28.187 14.091z"></path>
      <path fill="#fff" style="fill: var(--color3, #fff)" d="M37.333 32h-10.667v-10.667h-26.667v-10.667h26.667v-10.667h10.667v10.667h26.667v10.667h-26.667z"></path>
      <path fill="#000" style="fill: var(--color2, #000)" d="M32 0v32zM0 16h64z"></path>
      <path fill="#cf142b" style="fill: var(--color6, #cf142b)" d="M35.2 32h-6.4v-12.8h-28.8v-6.4h28.8v-12.8h6.4v12.8h28.8v6.4h-28.8z"></path>
    </symbol>
  </defs>
</svg>
