<svg xmlns="http://www.w3.org/2000/svg" width="2598.277" height="1742.738">
  <path fill="#fff" stroke="#000" stroke-width="3" d="M1345.271 1261.699c-.532.467 9.271 3.098 9.516 3.762 2.124 5.672 14.261 10.154 18.021 14.219 1.029 1.115 3.711 6.375 6.713 7.863 7.691 3.826-2.447-11.832 10.156-9.893 8.781 1.336 10.776 9.293 20.934 11.305 8.807 1.736 17.594-4.924 25.438 9.361 2.628 4.789 3.431 5.543-.885 7.949-.629.35-2.173.441-2.737.885-2.095 1.635-2.025 10.018-17.046 8.125-1.112-.141-6.591-2.012-9.805-1.678-2.193.227-9.414 2.889-10.599 4.416-4.22 5.406 5.396 11.32 11.745 10.598 8.375-.943 1.444-7.457 8.039-7.596 6.675-.141 9.521 9.246 18.282 10.598 1.996.314 5.527-1.412 8.391 1.59 1.926 2.018.229 5.264 7.243 9.01 10.198 5.43 15.518-3.17 19.342.707.984 1 1.832 3.92 0 7.064-.938 1.607-5.454 3.938-3.621 7.686 2.809 5.699 14.381 1.891 30.824 9.893 8.699 4.229 16.312 12.504 18.372 7.24.396-1-2.52-10.154 12.542-9.715 3.084.094 7.387 2.236 11.748.355 1.643-.711 3.326-3.537 7.506-3.887 2.922-.248 3.711 1.51 10.512.529 1.494-.219 4.412-1.363 5.917-1.236 2.056.172 5.655 2.631 7.685 3.002 2.496.455 9.191.211 11.13-1.412 4.036-3.383-2.581-8.955 6.801-8.834 6.918.109 6.417 3.213 9.186 3.799 1.444.307 4.528-.27 5.829-.971 1.374-.742 6.963.879 6.89 1.854-.216 2.814 1.296 1.639 2.297.971 1.001-.672 1.416-2.938 5.917-1.678 4.238 1.193 4.387 4.568 5.783 5.652 5.68 4.383 9.709-2.926 12.588 4.15.308.754.398 2.455.838 3.135.646 1 3.406 1.859 4.508 5.168.293.891-.484 3.047.131 3.756.529.607 2.423.857 3.18.572.436-.166.777-1.182 1.148-1.455 3.085-2.33 3.885-.299 5.476.57 7.966 4.367 1.899-4.129 4.505-6.801 1.324-1.357 10.22.762 4.063-8.391-.897-1.34-4.396-2.594-1.412-6.711 3.97-5.502 18.021-3.975 15.19 12.719-2.06 12.109-1.192 5.088.354 13.424 1.957 10.643-2.656 15.123 2.914 15.016.985-.018 2.578-1.516 3.532-1.768 1.604-.422 4.968-.426 6.624-.354 10.615.484 10.006 5.924 5.033 7.949-1.33.543-4.177-.104-6.183 2.209-2.047 2.367-2.729 8.184-3.091 9.186-1.808 4.938-5.38-1.758-11.306-.529-6.556 1.361-6.767 4.914-8.304 6.359-2.313 2.186-5.182 2.504-6.182 2.033-.643-.307-1.057-1.951-1.679-2.299-1.063-.59-3.725-.795-4.857-.354-1.018.396-2.137 2.512-3.003 3.18-4.124 3.188-6.281 1.898-7.771 2.828-.868.543-1.819 2.48-2.475 3.268-4.522 5.451-5.441 6.539-12.275 10.246-4.058 2.195-5.454 3.512-11.13 1.59-8.036-2.713-3.401-9.943-5.299-11.482-.788-.641-3.753.355-4.77 1.502-2.761 3.096-1.229 6.799-1.502 8.479-1.862 11.537-14.173 13.781-26.231 19.961-26.36 13.518-19.681 22.48-20.313 24.906-.421 1.6-4.591 6.709-5.83 7.154-1.929.699-4.537-.088-4.063-2.648.124-.682 1.498-1.543 1.679-2.209 1.142-4.213-4.524-3.105-8.654.707-5.965 5.502 1.1 1.996-12.454 9.893-6.826 3.988-28.308 12.9-21.64 30.914 5.521 14.922 10.305 6.686 17.663 9.273 3.605 1.264 2.002 5.021 8.568 1.5 3.141-1.689 9.168-7.434 11.747-8.479 6.198-2.51 19.681-1.346 25.525.529 3.747 1.203 20.292 10.938 21.991 12.1 17.081 11.693 16.276 23.709 27.91 28.793 8.719 3.807 7.032-2.773 14.573-5.652 4.188-1.605 7.758-.383 9.451-.883 2.298-.68 4.417-2.398 3.179-4.592-.413-.736-2.327-1.17-2.827-1.855-1.877-2.582-.037-4.494 1.326-4.594.484-.035 1.216.826 1.678.973 7.263 2.287 7.644-3.09 12.72-1.678 1.242.348 1.91 2.201 6.183 2.473 1.218.072 12.074-2.426 5.388 3.092-1.908 1.566-2.453-.07-2.914 4.24-.147 1.369.37 4.404-.619 7.064-.6 1.609-2.86 2.725-2.384 8.566.738 9.199 14.323 23.254 16.604 39.57 2.15 15.404-6.789 18.57-9.894 22.08-10.307 11.65-2.665 19.193-3.62 32.59-.313 4.35-2.65 8.92-2.65 8.92-.468 6.725 5.289 2.807 7.154 5.564.682 1 1.309 4.938-2.826 3.799-.644-.176-1.586-1.262-2.207-1.502-1.361-.527-7.512-.969-8.922-.619-7.31 1.834-3.139 6.02-10.244 7.244-.654.113-2.127-.496-2.65-.09-1.051.813-.604 5.244.354 7.066 1.112 2.127 10.006 9.92 11.923 11.482 6.398 5.207 4.986 1.963 12.101 2.119 16.865.375 9.774 8.287 13.603 12.455.416.453 6.979 3.547 8.303 4.68 2.635 2.25 2.718 7.334 10.863 6.891 2.922-.16 8.248-3.105 11.129-3.623 9.038-1.619 21.415 1.592 33.033-2.119 21.12-6.738 12.957-13.891 25.349-24.111 16.583-13.699 16.763 3.012 28.438-22.611 1.774-3.898 2.848-9.996 7.598-16.871 2.613-3.785 11.83-14.27 14.483-15.986 1.425-.922 23.619-9.84 24.644-10.156 12.082-3.744 24.082-4.533 25.084-4.682 7.756-1.154 13.865-3.887 13.865-3.887 10.416-1.561 9.104 13.23 22.435 3.711 6.823-4.881 5.218-8.74 6.448-12.102 4.887-13.328 10.521-3.629 15.189-13.338.917-1.902.193-6.234 4.239-8.037 6.056-2.684 7.129 2.117 8.922 3.092 3.662 1.996 5.759 1.498 5.388-3.18-.078-1-2.139-3.754-1.767-5.564.428-2.072 4.133-3.768 4.771-4.768 3.303-5.221-.511-7.654-.441-9.363.156-3.805 11.061-17.313 40.717-15.986 26.123 1.174 19.882 24.115 34.623 22.611 0 0 2.774-1.725 9.271-2.209 1.5-.113 4.592.498 6.008 0 3.729-1.309 6.395-10.158 22.875-7.684 4.283.641 15.07 4.584 16.518 4.063 0 0 3.361-4.404 6.712-6.094 8.701-4.381 13.937-1.865 17.225-2.65 3.813-.91 8.729-4.209 10.243-8.215 2.443-6.449-2.403-8.57-4.327-12.1-7.1-13.023-.91-17.635-.705-18.637.567-2.811-.457-5.033-3.533-3.885-.646.24-1.367 2.027-2.031 1.854-.741-.193-1.093-2.154-.973-2.912.563-3.514 10.104-6.963 11.396-13.25.202-1-2.321-12.293 6.801-8.832 1.883.711 4.246 4.758 10.244 2.209 5.049-2.145 6.067-8.094 6.713-13.516.127-1.063.178-24.816.178-24.816-1.073-5.695-5.447-5.539-6.447-5.213-1.554.514-.779 4.164-6.625 3.004-2.213-.447-9.215-5.078-11.658-5.74-5.018-1.363-5.438 1.412-7.684 1.941-6.524 1.535-8.103-2.504-10.246-3.619-2.918-1.518-9.99-2.693-12.542-2.385-1.622.193-4.589 1.756-6.184 2.119-.911.209-2.883.004-3.709.441-2.997 1.584-4.032 6.777-4.505 7.859-1.229 2.805-4.865 8.518-5.388 10.158-.43 1.35-.185 6.619-2.209 8.391-2.336 2.047-5.978.844-6.978 1.324-2.766 1.336-1.688 5.191-2.03 6.803-2.369 11.104-15.015 17.262-29.236 3.709-7.544-7.195-4.683-6.014-4.327-9.363.188-1.789.688-4.098-2.031-4.24-2.77-.152-4.4 2.648-5.123 3.887-1.92 3.297.379 2.229-5.033 7.154-2.728 2.482-3.893 1.633-4.239 5.83-.263 3.254 3.849 10.631-12.808 15.191-15.685 4.291-6.892 6.693-32.816 13.516-1.521.404-.557.475-1.717 1.586-6.318 6.029-17.145-5.09-20.051-6.359-2.189-.957-8.816-1.17-10.244-1.941-2.808-1.516-5.295-8.539-11.834-9.01-1.879-.139-8.87 3.424-10.953 2.648-6.407-2.373-3.103-17.395-8.126-15.279-4.788 2.008-2.415 11.041-3.003 12.1-3.525 6.334-15.779-4.625-4.857-17.047 4.543-5.168 6.479-2.803 8.566-3.709 4.127-1.785 6.024-6.479 6.182-10.688.338-9.176-5.395-13.963-8.92-19.166-8.576-12.676-10.148-17.012-22.61-18.637-1.548-.201-8.293.201-9.097-.529-2.244-2.045.054-6.771.088-7.771.083-2.453-.934-5.07-3.268-5.652-3.986-.984-4.004 2.432-5.034 3.09-1.001.643-9.563 2.6-6.536-7.064.625-1.992 2.92-4.41 1.059-9.186-1.707-4.361-6.156-4.178-7.947-3.623-1 .311-4.218 4.48-6.447 3.445-1-.463-2.36-3.27-.178-7.42 3.101-5.883 10.13-6.137 11.13-6.801 5.64-3.734 2.284-7.23-2.649-5.83-5.573 1.588-9.299 8.186-10.511 9.539-7.415 8.271-8.283 5.783-11.658 8.479-1.396 1.107-4.521 7.182-9.451 7.066-8.994-.215 2.363-9.205 3.976-11.836 1.539-2.531 1.508-6.121 5.563-8.566 3.147-1.902 4.874.916 8.567-7.332 7.326-16.375-11.985-23.199-10.334-13.602.521 3.064 1.773.547 1.679 8.125-.039 2.902 1.053 6.797-3.092 8.393-.804.311-2.64-.309-3.444 0-.862.332-1.884 2.123-2.737 2.473-12.198 5.021-.465-18.783-8.392-17.488-4.647.727-1.137 12.523-3.444 16.781-1.342 2.473-3.93 2.832-4.856 1.855-.647-.68.176-3.096-.53-3.709-.351-.305-1.495.293-1.854 0-3.692-3.002 5.681-10.549 5.388-13.516-.185-1.891-5.123-6.154-5.123-7.594 0-1 3.327-1.783-1.236-2.826-1.808-.412-6.818.477-8.037.354-8.703-.893-2.043-7.072-7.065-7.598-4.121-.43-1.986 2.934-2.296 4.064-.536 1.965-2.623 4.332-5.227 4.82-.625 1.041-3.039.752-2.459 2.068 4.217 9.549-10.564 14.16-14.838 9.186-1.849-2.146-.705-5.709 1.325-6.094.787-.152 2.119 1.428 2.914 1.324 6.099-.779.716-12.514-.178-13.514-3.122-3.482-9.412-.605-10.067-8.92-.073-.914 1.212-2.916.618-3.621-.457-.541-2.12.025-2.826 0-5.497-.172-8.917-1.621-11.04.443-2.203 2.137-1.124 6.859-2.031 7.859-1.092 1.203-7.093 1.416-8.656.529-1.604-.91-3.684-6.096-4.829-6.949-2.279-1.689-9.438.557-7.183-6.828.24-.777 1.664-1.799 2.119-2.473 5.289-7.848-4.91-10.209-6.713-6.949-.552 1 3.075 13.096-10.951 4.945-11.103-6.408-1.607-9.459-9.187-14.6-1.756-1.189-2.832-.205-4.742-3.729-.957-1.756-3.301-8.957 7.568-.865.76.564 2.119 2.35 3.063 2.236 2.691-.313 2.859-8.938 10.125-7.773 4.431.711 6.232 4.84 8.245 5.654 4.698 1.908 17.284-4.248 23.551 8.479 2.332 4.723 1.943 13.527 7.54 10.246.646-.381 1.321-1.916 1.999-2.236 3.145-1.482 4.056 1.688 5.3 2.473 3.483 2.191 6.622.887 7.539-.117 3.843-4.248-4.335-9.064-2.71-12.602.236-.518 1.447-1.178 2.004-1.061 1.861.4 3.002 5.428 4.002 6.006.563.326 2.123.328 2.59-.115.471-.449.293-1.943.236-2.594-.504-5.75-3.527-5.047-4.355-7.064-1.483-3.578 3.711-4.402-3.886-9.066-.665-.406-2.591-.559-2.825-1.295-.92-2.809 7.547-8.609 11.892-3.297 1.014 1.236 1.147 4.701 1.886 6.123 2.417 4.658 13.034 13.371 14.013 20.137.23 1.59-2.289 8.662-.94 9.775 1.012.838 5.021-1.236 6.359-3.416 3.941-6.438.137-8.615-.474-9.775-2.179-4.158-.765-6.98.235-7.535 5.726-3.174 17.552 16.801 25.907 13.07 3.409-1.521 3.411-6.182 3.887-7.182 3.182-6.672 10.981-1.74 11.307-.473.116.453-.929.906-.823 1.645.188 1.303 2.025 3.266 3.029 2.449.479-.391-.646-1.125-.469-1.473.347-.672 2.229-.473 2.914-.795 1.895-.891 6.211-6.631 15.81-2.385 2.66 1.182 4.185 5.137 8.832 1.943 1.089-.748 3.545-4.875 4.416-5.918.123-.146 5.8-5.699 8.392-8.656 3.376-3.838 1.21-4.236 7.598-3.443 2.483.316 4.885 2.377 10.774-.529l11.46-8.398c4.268-3.197 64.063-40.301 72.536-47.51 47.468-40.385 27.425-35.783 60.854-39.834 2.264-.275 6.856-.279 9.098-.707 1.514-.285 16.456-5.998 22.344-2.914 4.482 2.354 3.866 5.385 5.124 7.066 1.028 1.371 5.771-1.492 7.206-3.645 2.201-3.303 4.408-6.299 7.276-8.662 1.063-1.889 3.019-4.98 4.419-6.244 2.762-2.496 32.483-16.102 44.69-17.135 11.709-.984 10.946 3.928 14.613-.959 5.215-6.707 12.649-6.752 18.998-8.82 8.264-8.369 13.713-9.646 19.658-11.813 18.563-6.785 24.192-19.299 33.463-18.063 1.474.197 4.374 1.721 5.123 3.004 1.044 1.781-2.896 22.406 14.043-2.475 14.96-21.92 12.343-27.955 19.874-33.033 11.312-7.637 23.165 3.102 31.884 1.148 3.519-.789 12.871-6.703 15.368-7.596 7.966-2.855 9.552-.502 13.602.354 11.659 2.467 7.514 1.354 12.983-1.148.707-.322 2.282-.615 2.915-1.061.678-.48 1.417-2.117 2.12-2.561 3.308-2.096 8.723 1.223 8.037 5.299-.136.811-1.861 1.834-1.943 2.65-.063.629.487 2.029 1.06 2.297.832.385 2.705-.588 3.532-.973 7.713-3.58 3.574-5.064 4.859-8.479 1.754-4.678 7.147-5.484 8.125-7.508 1.573-3.252-4.367-15.334.266-20.668 1.925-2.215 7.05-1.523 10.599-9.068 6.657-14.09-16.453-6.27-13.541-15.662.946-3.105 7.283-8.887 8.358-10.482 4.274-6.328 2.76-8.146 2.473-14.014-1.141-24.811-5.307-25.346.236-30.971 2.726-2.771 12.615-6.09 14.249-6.949 2.323-1.219 7.698-5.826 13.425-7.299 4.054-1.047 13.646-.531 15.545-.707 2.938-.283 2.761.154 3.533-4.24.332-1.898-1.315-3.68 3.533-4.828 1.907-.451 8.278.533 9.186.236 1.184-.391 4.949-4.148 5.3-5.066.684-1.775-.354-9.26-.354-11.658 0-7.619.835-12.785 3.063-18.842.104-.285 4.104-9.25 4.355-9.422.294-.197 7.895-.113 8.247-.115 30.881-.188 27.986 3.721 41.567 1.527 1.918-.309 12.664-2.742 16.25-2.707 3.195.033 5.808 1.789 13.545 1.18 6.752-.543 11.017-2.496 13.659-2.828 6.868-.848 6.438 2.029 9.423 2.59 1.832.346 5.558-.693 7.418-.824 8.642-.604 26.377 2.027 29.562-23.785 1.113-9.029 1.166-9.887-1.533-14.84-.946-1.734-4.145-3.713-2.235-7.654.447-.93 5.032-4.238 5.77-5.77.775-1.613.955-10.258 1.533-13.426 1.162-6.422 1.897-5.864 4.002-8.716 5.611-7.578 2.688-5.833 4.355-9.893 2.827-6.79 7.909 1.469 10.482-4.593.465-1.09.16-11.942-.237-13.309-.771-2.63-2.666-4.928-5.533-5.653-5.196-1.304-6.485 2.38-8.479 2.355-1-.011-5.339-1.12-5.535-6.948-.318-9.745 10.62-2.847 8.596-10.6-1.271-4.89-9.35-3.795-13.896-12.718-4.231-8.303-.084-21.957-11.422-27.32-8.239-3.89-16.295 5.899-21.787-5.299-4.195-8.48 4.521-15.219 6.123-19.078 2.289-5.485.735-10.722 1.06-13.309.834-6.533 3.655-6.434 8.009-14.954 1.479-2.885.67-9.554 9.069-.59 4.353 4.674 1.106 5.438 10.831 4.124 5.344-.728 8.208-1.717 12.486-4.71 4.336-3.052 4.809-3.397 5.652-9.776.352-2.655.557-7.099-1.533-8.949-.709-.634-4.415-1.316-5.18-.825-.623.4-2.138 5.745-3.063 6.596-1.912 1.751-8.281 2.28-10.951 1.648-.448-.104-12.83-5.983-13.426-6.596-.654-.671-1-2.645-1.529-3.417-2.419-3.5-11.671-10.542-13.309-12.129-1.05-1.013-2.791-3.391-3.888-4.355-4.438-3.946-3.25-1.298-5.889-.473-2.574.82-4.558-.15-5.531-2.354-2.366-5.328 2.466-5.649 5.414-6.597 1.664-.537 5.088-1.355 6.83-1.529 1.377-.138 4.213.525 5.535.116.146-.045 3.414-2.941 7.536-4.003 2.987-.769 7.849.553 12.603-4.593 1.571-1.707 3.134-6.236 4.476-8.125.865-1.226 3.248-3.179 4.004-4.477 1.272-2.184 1.271-6.581 6.476-14.603 12.123-18.635 14.859-9.79 12.248-28.03-2.771-19.381-23.183-30.775-18.254-43.808.58-1.525 6.549-10.396 7.539-10.716.523-.168 1.572.646 2.118.59 5.296-.567 2.688-6.029-1.647-8.126-1-.483-14.772-2.35-17.313-1.179-6.103 2.816-10.266 15.349-20.49 14.721-1.47-.092-4.211-1.35-5.652-1.65-1.367-.282-4.2-.293-5.536-.707 0 0-19.909-9.338-20.017-9.419-8.072-6.142-5.966-19.178-9.775-21.903-1.344-.963-7.964-.439-9.895-.707-3.67-.521-9.349-3.398-9.537-3.417-2.453-.241-6.813 2.438-8.125 2.71-4.746.979-7.484-1.75-10.246-2.473-1.843-.482-5.191.094-8.834-2.474-3.836-2.712-10.724-12.919-13.07-14.959-7.254-6.284-2.184-1.127-20.375 9.069-14.313 8.031-12.105 7.038-17.428-3.18-.584-1.127-2.976-5.578-4.123-6.123-2.216-1.065-10.375.271-13.306-.943-1.268-.524-11.323-8.83-12.364-10.715-.611-1.104-.428-3.798-.941-4.945-.613-1.361-2.298-4.095-3.65-4.714-.95-.433-10.256.521-10.836.706-3.355 1.072-11.412 7.542-12.719 8.247-3.441 1.851-2.546 1.041-4.945-2.474-3.687-5.441-.444-4.359-8.127-4.359-2.78 0-10.198.377-10.715.121-5.322-2.652-.499-16.184-6.596-17.434l-9.303.591c-9.579 2.146-3.699 13.515-7.419 20.49-.229.429-7.63 7.745-9.069 8.716-10.16 6.847-12.291.666-14.602-1.768-35.653-37.684-31.804-19.237-40.865-26.263-1.042-.807-2.435-3.124-3.296-4.12-11.242-13.055-11.233-9.545-13.545-23.317-.757-4.538.204-8.833-2.826-14.838-3.325-6.595-14.466-10.302-17.665-14.485-1.611-2.113-2.402-7.688-3.887-9.893-.924-1.379-5.113-6.058-8.242-5.888-.73.037-13.154 5.548-13.777 5.888-5.658 3.083-12.307 9.061-14.723 10.716-7.453 5.132-5.76 2.307-11.539 2.942-6.021.679-8.261 3.264-10.951 3.888-1.983.458-15.195-.029-20.021 1.295-26.513 7.311-25.242 33.666-40.865 29.561-6.18-1.626-5.76-5.79-6.712-9.307-1.431-5.331.645-4.155-4.355-4.944-.654-.103-13.918-1.907-15.075-2-9.321-.768-14.692 6.067-21.431-2.121-3.418-4.146-1.496-7.837-11.778-16.25-7.825-6.417-10.188-4.722-14.603-6.596-3.179-1.351-2.542-3.261-10.951-3.296-27.598-.164-25.255 20.127-44.984 22.491-1.512.18-4.777.673-6.243.12-1.168-.442-8.902-8.13-9.302-8.716-5.008-7.298 2.144-10.285-12.603-17.194-2.215-1.032-1.725.486-4.478-2.827-2.072-2.488-6.037-7.229-8.479-16.015-5.628-20.391 3.491-21.536 5.066-28.97.148-.716-.563-15.318-.827-16.369-1.697-6.716-6.957-11.239-8.125-13.308-2.388-4.227-4.57-14.329-4.595-14.368-.592-1-6.826-5.439-9.301-10.599-5.6-11.62 6.703-10.045 8.832-11.539 5.357-3.77-2.344-8.89-7.889-10.244-11.464-2.829-18.549 5.123-23.672-10.719-1.064-3.284-1.957-15.1-4.592-18.604-1.387-1.849-7.148-5.825-11.306-6.007-7.499-.334-36.776 11.781-38.747 12.128-6.272 1.1-6.566-.813-9.774-3.533-2.569-2.184-9.337-8.661-11.188-9.422-4.847-1.984-14.764 2.847-17.076 2.239-1.979-.521-5.561-7.341-13.307-6.005-2.949.508-12.594 8.813-18.137-3.653-5.772-12.996 8.356-7.144 9.539-16.368 1.172-8.898-17.99-8.138-13.072-20.255 1.012-2.49 9.155-9.465 8.009-13.662-.554-2.034-4.857-4.056-6.359-5.536-16.826-16.546.17-9.097-22.608-24.376-1.359-.907-5.419-1.63-3.533-4.357 2.63-3.766 11.925-3.13 13.778-3.649.01-.002 11.351-5.767 17.547-7.893 1.779-.608 11.777-2.54 13.543-5.063 3.255-4.667-1.674-9.099-2.59-10.834-5.202-9.824-2.174-10.306-3.771-14.956-1.866-5.445-3.563-4.62-7.184-4.709-2.081-.057-9.699 1.008-11.07-.237-1.028-.936-.853-4.098-1.293-5.416-5.635-16.803-21.106-13.136-19.314-36.036.313-4.076 2.282-10.549 1.176-17.311-2.138-13.292-7.927-6.748-19.784-21.551-3.631-4.553-9.316-20.036-29.086-22.024-6.664-.664-8.842.439-25.2 7.187-.989.405-2.876 2.112-3.887 1.765-.78-.271-2.45-6.185-3.063-7.185-2.436-3.992-3.684-2.573-7.063-2.707-9.978-.402-27.321-1.887-27.321-1.887-12.853 1.031-6.585 6.53-30.383 19.199-13.392 7.103-8.263.624-27.439 2.942-2.094.253-8.722 2.047-12.248 1.413-6.482-1.163-13.029-6.994-16.252-8.948-10.229-6.232-7.769-4.822-17.429-4.947-17.456-.233-10.63 3.436-12.836 11.186-.639 2.248-5.367 7.704-4.476 12.838.563 3.254 7.762 8.946 2.12 11.185-.931.371-3.151-.406-4.003.12-.868.537-4.538 9.506-5.652 10.953-1.725 2.229-6.487 5.426-8.479 7.418-1.327 1.329-3.61 4.332-4.944 5.653-3.415 3.38-5.61-.972-12.956.354-2.213.395-4.513 2.402-9.069.94-7.928-2.54-4.141-8.772-4.709-9.772-1.522-2.686-19.844-3.531-20.844-3.653-5.484-.668-28.672-5.275-33.916-6.477-25.865-5.925-26.51.334-30.854 5.063-1.784 1.945-6.629 8.145-8.361 9.069-9.431 5.081-8.302-6.937-21.081-7.888-6.367-.493-14.104 1.793-17.312 2.119-2.166.217-6.293-1.425-7.536 2.827-.73 2.486 2.39 2.53-1.413 11.305-4.271 9.86-7.506 7.613-12.835 12.365-1.857 1.65-4.733 5.766-6.479 7.536-4.572 4.646-12.978 7.07-17.781 28.147-.578 2.522-.49 11.361-3.063 14.365-2.613 3.039-4.821.516-6.478.472-2.937-.084-5.742 1.263-6.713 4.003-1.837 5.199 2.239 7.659 2.59 9.539 0 0-2.411 13.435-1.413 20.607 1.005 7.113 4.901 8.167 6.006 11.072 1.354 3.542-.055 12.688.12 14.365.47 4.484 3.586 8.451 4.474 10.953 5.086 14.325-1.271 13.765-1.413 16.252-.063 1.162 2.312 2.843 2.355 4.005.041 1-1.065 4.78-5.063 5.416-1.054.17-3.343-.921-4.239-.352-.929.589-.629 3.494-1.534 4.122-2.656 1.801-7.242-4.536-8.242-5.183-1.934-1.255-16.293-4.487-18.725-7.536-3.668-4.609.96-19.021.591-20.021-.521-1.402-3.717-2.533-4.829-3.533-1.039-.933-3.078-2.907-3.771-4.123-.653-1.148-.579-4.143-1.529-5.063-.985-.954-3.993-1.003-5.3-1.412-14.82-4.666-.041-1.21-19.667-4.24-4.411-.687-5.942-2.693-9.419 1.176-2.045 2.271.729 2.591-5.299 3.77-10.224 1.989-5.016-.846-12.25 3.77-3.876 2.46-3.673 3.098-8.125 2.943-9.22-.303-12.454-1.296-13.188-13.188-.075-1.209 1-3.894.233-4.831-.959-1.168-6.539-.557-8.833.592 0 0-2.991 2.54-10.362 8.005-1.728 1.283-8.85 5.995-12.128 10.365-1.118 1.486-3.29 7.074-4.946 7.652-1.6.557-7.292-2.233-8.952-2.352-5.685-.426-5.525 3.308-7.651 4.593-.623.375-2.619 1.186-3.212.808-.07-.029-5.74-7.758-5.74-7.758-5.898-9.228-3.627-9.104-4.474-14.485-1.653-10.521-9.61-31.645-10.72-35.799-.501-1.886-.367-6.087-1.529-7.656-.929-1.26-4.798-2.398-6.121-1.649-2.166 1.229-1.199 5.006-1.414 6.006-1.072 4.969-9.29 10.809-11.426 11.895-2.525 1.284-8.033 1.567-16.839 4.003-4.229 1.175-5.707.81-12.248 8.01-9.309 10.216-3.063 16.662-8.479 19.195-.947.441-8.877.073-9.304-.117-5.686-2.529-6.348-19.969-6.241-22.964.034-1.039 1.069-3.201.59-4.123-.846-1.607-5.006-.965-6.006-1.06-9.14-.853-5.084-3.795-30.384 3.3-4.386 1.231-4.825 2.896-6.243-.827-.479-1.268-.628-4.056-1.177-5.299-.848-1.911-3.762-5.031-4.828-6.829-.704-1.186-3.657-8.742-6.123-9.655-4.462-1.659-9.936 9.888-16.957 13.188-1.874.878-11.655 2.483-12.604 2.473-7.254-.071-5.645-2.343-7.42-4.002-.945-.888-12.512-7.651-12.955-7.773-4.461-1.237-10.895 2.669-4.709 7.299 1.859 1.397 4.113.365 5.185 6.595 1.505 8.913-3.77 5.148-16.136 11.896-2.229 1.208-3.616 3.8-7.065 2.353-1.273-.526-5.133-4.24-5.808-5.649-.991-1.991 3.47-7.314 5.57-10.366 1.795-2.602 7-5.688 1.06-8.948-1.404-.778-4.808-.52-6.358-.944-2.181-.594-11.377-5.204-15.896-5.299-4.521-.096-10.831 3.65-12.365 3.65-2.301.007-6.342-2.82-8.596-3.296-1.731-.364-5.39.2-7.066-.354-1.007-.332-2.568-1.912-3.533-2.356-.777-.36-2.748-.283-3.296-.94-1.567-1.879 1.146-6.883.353-7.893-1.613-2.048-7.709 3.966-9.537-7.888-.518-3.275 2.927-10.102.293-14.396-4.234-6.982-31.833-.17-33.916-.09-7.3.285-8.818-2.655-12.631-4.327-2.541-1.107-8.262-2.265-11.836-4.68-2.672-1.814-10.051-9.966-12.807-10.953-9.604-3.445-15.256 7.109-21.814 4.593-4.048-1.563-9.409-10.182-10.512-11.394-4.584-5.042-5.458-5.559-12.807-6.095-2.928-.212-13.488.932-16.252-.176-2.312-.926-5.496-5.105-7.595-6.447-1.124-.721-18.559-9.054-22.436-9.363-4.042-.321-1.776 2.442-10.774-1.59-1.464-.653-4.089-2.665-5.652-3.003-1.428-.311-4.42.727-5.83.354-2.512-.67-2.143-3.165-8.832-3.799-4.67-.448-10.109.372-27.295.52-52.595.406-26.004-18.772-55.905-9.706-8.534 2.599-6.876 3.839-27.203 4.947-40.781 2.212-35.398-1.433-41.424-1.679-1.628-.066-4.819.964-6.447.972-3.64.016-9.815-2.41-21.285-1.502-9.66.763-10.509.589-13.515 6.889-1.76 3.68-3.014 12.7-4.063 15.456-6.883 18.185-24.75 14.846-27.203 16.429-.102.065-3.373 6.188-6.889 8.214-3.729 2.15-5.337-.86-12.809 5.918-1.286 1.162-3.069 4.476-4.681 5.123-1.191.477-4.162.499-5.123-.354-.707-.625-.309-2.853-.707-3.709-.544-1.166-2.312-3.116-3.269-3.976-5.473-4.883-7.984-3.954-9.893-4.592-5.443-1.834-4.515-3.896-6.359-5.211-3.137-2.243-6.272-1.763-8.654-.882-12.453 4.575-7.567 11.781-6.802 20.579 1.006 11.589-4.591 8.51-5.564 10.422-.439.867.646 2.841.796 3.798.376 2.362.446 6.813 1.502 9.804.972 2.779 4.558 6.009 2.826 12.542-1.233 4.612-6.294 7.117-7.86 9.539-8.805 13.601 4.816 21.087 10.422 27.646 13.966 16.361 5.033 18.418 14.043 36.653.598 1.215 2.185 3.469 2.563 4.77.597 2.063.226 6.455.618 8.567 3.502 18.864 14.133 22.28 17.84 25.261 2.82 2.264 9.356 7.983 8.127 11.394-.947 2.624-8.041 1.275-9.627 1.502-2.396.341-10.812 3.316-11.659 3.885-3.685 2.475-4.866 5.159-4.415 9.716.737 7.566 5.227 6.575 4.77 14.573-.1 1.861-1.612 4.487-.706 9.804 1.198 7.039 2.803 1.668 3.709 20.844.477 10.129 1.336 6.265-3.181 15.633-1.756 3.638-3.794 8.703-6.358 10.6l-14.221 6.712c-9.683 3.43-18.447-3.685-26.496.706-4.963 2.713-4.544 4.532-6.89 10.864-3.09 8.349.441 3.768-6.801 8.303-60.104 37.632-60.414 44.924-75.604 60.413-12.608 12.86-12.899 10.033-33.563 33.739-11.369 13.05-23.516 28.435-38.685 41.423-2.686 2.296-8.963 5.974-11.041 8.833-.98 1.346-4.334 10.568-3.709 11.305.586.688 2.716-.248 3.62-.177 9.265.69 6.754 4.34 6.802 8.479.024 2.275.222 42.813-1.679 48.313-.771 2.235-4.395 6.212-4.506 11.572-.101 5.299 2.179 4.888 3.888 6.093 6.313 4.465 3.63 8.385 4.857 10.953.479 1 13.032 11.222 9.715 18.547-.45 1-2.926 3.21-6.87 3.109-4.259-.095-8.507-4.072-10.971-4.699-1.583-.403-4.932.229-6.536-.088-8.79-1.737-15.754-10.395-22.346-10.688-2.507-.116-4.521-.94-3.709 2.384.17.693 1.208 1.792 1.413 2.475 3.376 11.332-6.826 5.479-24.465 28.526-4.864 6.341-3.083 4.791-3.709 13.426-.721 10.021.71 8.062-5.211 18.194-9.697 16.58-8.41 10.591-16.163 17.4C7.45 725.504 6.547 738.198 5.22 742.137c-2.403 7.129-6.276 14.019-4.151 18.018 3.399 6.395 5.769-.92 13.603 7.949 4.658 5.274 2.994 10.158 3.682 11.542.534 1.072 5.7 3.114 7.066 11.774.707 4.564-3.563 12.026 9.418 13.896 11.69 1.678 13.674-1.063 17.784 11.658 3.029 9.414 1.506 20.802 6.946 22.258 1 .269 27.863-8.439 36.036 8.716 4.681 9.831-6.966 14.193-7.419 18.724-.142 1.459 1.759 4.031 2.239 5.417.428 1.244.625 4.014 1.413 5.066 2.021 2.711 3.277.154 4.945-1.768 3.805-4.392 1.521-3.799 2-6.832.357-2.208 2.479-5.269 3.533-5.771 3.893-1.842 5.566 2.231 7.066 2.709 1.49.471 10.934-.987 12.012-1.413 8.883-3.514 9.337-15.42 18.491-17.432 3.671-.801 11.929.786 14.365 2.355 6.921 4.467 1.626 12.66 11.777 21.667 1.74 1.549 11.622 7.094 13.188 7.418 5.313 1.119 10.917-1.986 12.602-2.119 5.823-.453 11.152 3.646 14.603 4.83 2.262.775 12.26 2.566 15.897 4.238 2.771 1.275 11.491 7.738 12.129 8.01 12.82 5.438 8.361-6.73 32.855 2.943 14.906 5.869 8.373 5.619 12.485 9.186 3.414 2.977 22.525 5.758 28.732 3.65 3.666-1.242 11.621-7.143 13.072-7.889 4.385-2.25 4.149-1.064 8.361-.238 14.71 2.9 16.684 2.377 18.251 4.713 3.15 4.641 4.595 17.158 11.306 23.904 2.148 2.158 11.494 8.777 13.426 11.543.968 1.385 1.767 4.766 2.594 6.242.424.76 7.351 10.592 8.242 11.068 1.145.613 3.899.152 5.183.354 2.025.313 6.162 1.5 8.125 2.002 29.188 7.477 15.934 8.449 21.784-7.539 3.289-8.938 3.272-9.457 11.426-16.721 9.121-8.131 8.411-6.1 11.893-7.303 5.568-1.898 6.605-3.588 8.599-4.355 9.919-3.836 23.263 1.729 34.74.822 1.893-.148 9.694-2.412 14.016-2 1.251.119 9.824 4.141 21.783.471 1.752-.537 4.896-2.721 6.713-2.943 1.9-.232 5.627 1.404 7.539 1.293 2.416-.135 6.935-2.193 9.302-2.707 17.38-3.758 17.995 5.076 26.733 2.354 1.174-.363 12.039-7.063 13.658-8.596 2.202-2.08 7.689-11.436 9.658-14.016 7.87-10.314 10.067-10.158 12.6-12.365 1.244-1.078 3.197-3.844 4.593-4.709 1.396-.861 4.911-1.045 6.243-2.004 1.02-.729 1.664-3.369 4.477-4.592 6.445-2.811 9.042 4.971 14.602 1.18 0 0 3.646-4.678 5.89-6.479 3.199-2.567 8.53-4.853 9.654-5.652 9.124-6.491 2.473-8.02 2.591-9.539.077-.976 2.155-1.996 2.825-2.706 1.51-1.594 2.108-5.038 6.359-2.593 1.955 1.126 4.285 6.396 6.949 6.48 1.706.045 6.185-3.165 6.122-4.478-.035-.792-6.572-6.09-7.182-6.596-2.517-2.074-4.587-1.811-4.123-7.182.737-8.619 7.216-4.074 9.067-3.533 15.136 4.402 10.632 1.966 15.191 9.067.576.891 1.371 3.138 2.357 3.533 1.62.65 5.102-1.248 6.828-1.533 1.281-.209 9.516-.5 11.422-2.353 1.305-1.275 1.676-7.697 2.594-8.009 2.869-.983 9.391 9.901 11.539 10.715 4.161 1.581 12.406-3.734 13.896-4.593 12.065-6.954 12.697-12.445 20.372-7.772 8.015 4.887 1.705 9.749 14.016 3.3 12.863-6.767 9.294-8.522 15.189-7.892 7.324.783 7.086 4.205 9.539 6.595 3.942 3.848 5.742 3.436 13.189 5.183 17.827 4.16 9.561 4.275 26.495 19.548 4.738 4.264 14.133 10.245 14.133 10.245 4.326 4.358 3.604 9.137 5.065 11.422 4.231 6.672 12.511-1.666 19.548 5.066 1.246 1.186 3.035 8.068 6.829 7.064 2.107-.566 1.001-5.586 8.126-4.594 10.969 1.504-3.494 11.492 6.125 14.955 1.082.393 6.906-.855 8.359 1.061.822 1.078.008 4.08.236 5.416.255 1.488.852 4.572 1.768 5.773 1.152 1.514 6.582 6.051 9.302 2.59 1.052-1.336.506-7.531 1.532-8.717.386-.443 8.988-3.018 9.54-3.18 10.797-3.146-.302-1.889 28.733 7.42 5.891 1.898 9.891 1.807 12.645 13.199 3.631 14.984 6.938 16.01 14.205 21.07 1.832 1.279 9.913 8.26 12.836 8.125 3.891-.17 5.778-5.93 7.539-7.184.652-.465 6.824-2.25 7.889-2.002 5.135 1.219 5.146 8.328 6.359 11.658 3.365 9.301 4.593 5.459 6.242 8.479 5.207 9.607-8.354 16.195-4.359 19.785 1.115 1.002 7.85-.68 9.422.475 3.248 2.369-1.938 5.018-2.941 6.123-12.731 14.004-9.35 23.705-9.069 27.91.158 2.354 1.377 9.32-.236 11.305-3.164 3.898-14.007-.91-12.598 8.717 1.641 11.438 9.79.23 11.891 7.771 2.86 10.148-10.14-.83-7.182 9.656 2.389 8.453 9.551-.137 12.719 0 5.25.215 4.715 5.832 6.006 7.771 2.296 3.445 10.599 9.186 10.599 9.186 3.119 4.375.389 9.271.591 11.543.134 1.547 1.505 4.412 1.999 5.885 6.141 18.209 12.423-20.709 28.029-1.768 9.174 11.221-.57 14.807-2.238 17.666-4.33 7.449 3.052 19.172-.587 23.201-1.188 1.311-7.3 2.475-8.126 3.77-.852 1.313-.42 6.113 1.528 7.182.087.047 8.701-.119 10.601.236 10.77 2.021-1.121 15.482-1.413 17.191-.328 1.936 2.235 3.064-.116 7.656-.768 1.488-5.957 4.004 0 6.006.668.225 2.146-.309 2.826-.117 0 0 5.916 3.932 8.712 5.18 1.42.635 4.614 1.111 5.89 2.002 2.86 2.004 8.095 11.445 9.894 13.072 4.293 3.906 10.427-2.338 14.015 1.061 1.001.955 2.909 7.047 5.299 8.125 1.974.887 3.777-2.787 6.477 3.65 3.258 7.799-10.346 1.398-4.477 9.773 1.174 1.672 6.103 3.646 7.187 8.363.624 2.705-1.739 11.084-1.886 12.598-.504 5.225 1.147 11.766.826 14.252-1.162 8.91-5.325 7.193-7.421 9.303-4.401 4.43-.905 5.654 10.125 13.662 1.462 1.049 4.712 2.766 5.892 4.119 1.104 1.271 2.127 4.604 3.063 6.006 4.466 6.695 4.426 3.229 9.42 4.238 11.035 2.27-3.604 13.102-23.787 8.188-1.142-.275-3.27-1.838-4.416-1.59-2.717.584-4.849 6.947-5.389 7.947-2.453 4.557-1.258 4.195-7.33 1.326-14.164-6.717-4.561-8.814-6.537-13.426-.946-2.215-5.416-4.783-7.152-6.447-6.245-5.971-9.104-11.063-12.276-7.42-4.741 5.453 5.574 6.809-6.096 16.959-6.881 5.982-6.511 6.273-19.695-12.631-1.102-1.58-4.881-8.959-8.036-9.361-1.776-.223-6.609 2.65-7.421 4.416-.462 1.002.144 6.953-1.59 8.834-2.295 2.48-2.563-2.027-2.975-3.033-.406-1-2.744-7.461-4.709-8.244-1.898-.758-5.146.01-7.303 5.535-.688 1.77.28 5.189-3.412 9.656-5.675 6.85-10.405 6.934-8.833-11.539.152-1.813 2.371-10.592 1.06-13.898-3.082-7.773-11.662 3.381-16.371 4.947-1.343.451-4.323-.143-5.651.354-2.084.781-5.053 4.469-7.066 5.418-7.971 3.75-17.055-3.182-15.424 4.119.324 1.482 3.414 7.465 4.355 12.719.807 4.523.328 16.66 2.118 24.379 3.113 13.346 13.423 9.574 12.836 16.604-.461 5.496-19.802 22.318-19.311 21.318-2.875 5.854 7.338 13.977 4.238 18.957-1.523 2.443-30.209 11.305-31.209 12.25-1.716 1.629-3.296 8.447-2.943 12.248.187 2.02 2.707 7.816 2.59 9.303-.131 1.689-2.405 10.293-7.889 11.543-3.864.885-3.638-2.66-9.303 2.354-1.046.926-2.632 3.398-3.888 4.006-1.039.5-3.631-.166-4.592.471-3.378 2.229-.332 10.445-7.419 9.537-.301-.037-.771-.5-1.061-.59-5.817-1.693-10.272 6.912-9.069 10.246.477 1.328 3.082 2.23 3.533 6.48.131 1.236-.692 3.703-.59 4.945.104 1.25 1.359 3.572 1.412 4.826.08 1.807-1.558 8.637-2.588 9.068-1.758.73-2.765-4.07-4.24 2.004-.594 2.438.749 10.695-6.949 9.186-1.139-.227-4.395-3.229-5.652-3.416-1.257-.188-3.674 1.113-4.945 1.176-1.523.082-7.254-1.326-9.772-.822-2.598.516-11.223 4.941-12.485 6.83-.944 1.42-1.453 6.473-.705 8.008.287.592 6.058 5.48 7.125 7.773 1.313 2.813.498 10.221 4.239 16.781.99 1.742 11.998 14.033 14.132 15.721 3.353 2.646 14.217 8.354 17.666 8.125 1.291-.082 2.989-2.65 6.534-1.061 2.302 1.035 3.373 5.127 10.422 6.889 4.447 1.117 13.223 1.465 17.136-1.412 7.076-5.205 2.606-10.445 3.71-13.426 1.277-3.473 4.986-3.793 8.655-3.355 6.95.824 5.762 4.52 8.125 5.477 1.949.787 9.067-1.01 10.775-2.473 1.296-1.105 2.452-4.512 3.532-5.828.442-.541 1.606-1.355 2.061-1.883.83-.971 1.726-3.609 2.826-4.242.844-.486 2.922-.123 3.887-.236 26.496-3.084 12.226-26.23 67.6-9.301 37.198 11.311 22.071 20.209 21.667 22.729-.396 2.482 2.193 7.221 2.826 9.654.893 3.439-.29 6.785 3.532 6.832 1.611.021 1.945-1.176 6.242-.826.534.047 1.668.646 2.12.354.301-.193 2.03-8.563 2.354-9.418.646-1.713 2.979-4.703 3.416-6.479 1.245-5.016-1.535-11.295-1.884-14.012-.235-1.813.11-5.49-.119-7.303-.174-1.381-1.233-4.027-1.293-5.416-.028-.598.41-1.762.354-2.357-.148-1.461-.979-4.479-2.004-5.535-1.448-1.49-7.641-2.678-9.187-1.646-1.396.928.372 3.916-3.887 3.533-5.646-.539-3.971-2.658-3.647-6.834.652-9.002 8.258-14.602 16.014-19.193 32.27-19.037 4.555 2.676 51.344-36.271 35.973-29.902 11.064-9.139 27.324-24.73 2.576-2.471 8.592-6.521 10.832-9.303 1.049-1.303 1.904-4.805 3.18-5.889.689-.584 2.683-.652 3.416-1.178 1.283-.912 2.799-3.809 3.887-4.945.959-1.002 25.479-21.424 36.035-41.336 7.023-13.221 5.375-7.451 11.775-13.66 2.116-2.047 5.643-6.803 7.656-8.949 3.591-3.83 16.026-12.262 24.377-36.742 1.817-5.334 5.152-22.809 6.713-27.205 2.34-6.602 2.25-6.432 7.889-7.77 3.967-.945 15.037-1.453 17.078-2.238 2.215-.854 5.422-4.838 10.479-6.006.717-.166 7.31-.049 7.833.295.902.592 3.261-.17 4.326 0 5.468.873 14.097 6.867 20.402 5.387 1.506-.348 15.362 5.074 14.145 6.141z"/>
</svg>
